<svg width="20" height="20" viewBox="0 0 20 20" fill="none" xmlns="http://www.w3.org/2000/svg">
<path d="M19.1371 18.0091L13.6924 12.5627C14.9168 11.0513 15.5147 9.12777 15.3628 7.1886C15.2108 5.24943 14.3207 3.44246 12.8758 2.14021C11.431 0.83796 9.54153 0.139696 7.59705 0.189369C5.65257 0.239042 3.80126 1.03287 2.42478 2.40719C1.04829 3.78151 0.251565 5.63157 0.198839 7.57597C0.146113 9.52037 0.841409 11.4109 2.14139 12.8578C3.44137 14.3047 5.24694 15.1977 7.18587 15.3527C9.1248 15.5076 11.0493 14.9128 12.5626 13.6908L18.0061 19.1372C18.0797 19.2129 18.1677 19.2733 18.265 19.3148C18.3622 19.3563 18.4667 19.378 18.5724 19.3788C18.6781 19.3795 18.7829 19.3592 18.8807 19.3191C18.9785 19.279 19.0673 19.2199 19.1421 19.1451C19.2168 19.0704 19.276 18.9816 19.3161 18.8838C19.3562 18.786 19.3764 18.6812 19.3757 18.5755C19.375 18.4698 19.3532 18.3653 19.3117 18.268C19.2703 18.1708 19.2099 18.0828 19.1341 18.0091H19.1371ZM7.80046 13.7853C6.61679 13.7853 5.45971 13.4343 4.47552 12.7767C3.49134 12.1191 2.72426 11.1844 2.27129 10.0908C1.81832 8.99726 1.6998 7.79394 1.93073 6.63301C2.16165 5.47209 2.73164 4.40571 3.56862 3.56873C4.4056 2.73176 5.47197 2.16177 6.6329 1.93084C7.79382 1.69992 8.99715 1.81844 10.0907 2.27141C11.1843 2.72438 12.119 3.49146 12.7766 4.47564C13.4342 5.45982 13.7852 6.61691 13.7852 7.80058C13.7835 9.3873 13.1524 10.9085 12.0304 12.0305C10.9084 13.1525 9.38718 13.7836 7.80046 13.7853Z" fill="white"/>
</svg>
